<svg
    xmlns="http://www.w3.org/2000/svg"
    width="80"
    height="80"
    viewBox="0 0 80 80"
  >
    <path
      d="M182.2,142.205a40,40,0,1,0,40,40A40,40,0,0,0,182.2,142.205Zm14.311,50.06c3.843,0,9.409-2.12,9.409-2.12l1.988,6.891a32.982,32.982,0,0,1-13.053,2.981c-5.14,0-8.794-1.5-11.228-4.107-3.457,1.535-6.354,2.537-7.532,2.926-.131.043-.265.087-.405.131l-.168.054v0a23.37,23.37,0,0,1-6.785,1c-10.8,0-15.305-6.56-15.305-16.3,0-11.927,6.891-18.221,16.1-18.221a11.683,11.683,0,0,1,9.673,4.7l-5.168,5.367c-1.06-1.259-2.054-2.253-3.843-2.253-2.187,0-5.632.861-5.632,9.276,0,8.348,3.711,9.541,6.56,9.541a12.852,12.852,0,0,0,3.181-.546h0s2.728-.847,6.063-2.132a25.154,25.154,0,0,1-.618-5.735c0-11.86,7.354-18.221,16.829-18.221,8.282,0,11.6,4.307,11.6,10.005,0,6.427-6.559,11.462-17.095,12.323C191.677,190.477,193.2,192.265,196.514,192.265Z"
      transform="translate(-142.203 -142.205)"
      fill="#141215"
    />
    <path
      d="M334.468,261.811c-3.152,0-4.266,4.08-4.389,7.6,4.883-.124,6.738-3.029,6.738-5.007A2.378,2.378,0,0,0,334.468,261.811Z"
      transform="translate(-281.409 -230.797)"
      fill="#141215"
    />
  </svg>