<svg xmlns="http://www.w3.org/2000/svg" xml:space="preserve" fill-rule="evenodd" stroke-linejoin="round" stroke-miterlimit="2" clip-rule="evenodd" viewBox="0 0 3843 1895"><g transform="matrix(1 0 0 .880022 -9283 -1161)"><path fill="none" d="M9283 1320h3843v2153H9283z"/><clipPath id="a"><path d="M9283 1320h3843v2153H9283z"/></clipPath><g clip-path="url(#a)"><path d="m11870 3039-12-20-149-241c-63 207-194 361-440 343-177-13-286-132-348-283-263 313-502 490-704 573-209 85-387 76-530 13-357-157-514-684-320-1175 181-455 487-749 760-867 223-97 430-76 567 32 190 151 217 366 190 545-12 86-38 162-58 212l-321-138c5-11 32-68 42-138 8-52 7-118-49-162-60-48-151-30-249 12-207 89-433 319-570 664-106 267-62 567 132 653 102 45 235 24 395-69 200-117 430-343 685-708l305 132s-5 96 16 194c12 51 23 118 79 122 92 7 104-95 113-179 18-154-6-312-6-312l309-145 250 406c129-219 318-337 318-337l222 62 160 265c128-220 315-329 315-329l154 347s-244 134-244 416v4l-313 105-9-15-247-410a464 464 0 0 0-132 316v4l-311 108Z"/></g></g></svg>