<svg width="100%" height="100%" viewBox="0 0 100 64" version="1.1" xmlns="http://www.w3.org/2000/svg" xmlns:xlink="http://www.w3.org/1999/xlink" xml:space="preserve" xmlns:serif="http://www.serif.com/" style="fill-rule:evenodd;clip-rule:evenodd;stroke-linejoin:round;stroke-miterlimit:2;">
    <path d="M78.697,49.368C72.645,49.368 69.86,46.101 68.772,41.259C88.017,39.686 100,30.487 100,18.747C100,8.337 93.948,0.469 78.818,0.469C61.51,0.469 48.074,12.09 48.074,33.755C48.048,37.279 48.426,40.795 49.203,44.232C43.112,46.581 38.126,48.127 38.126,48.127L38.126,48.129C36.238,48.655 34.067,49.127 32.315,49.127C27.11,49.127 20.331,46.948 20.331,31.697C20.331,16.325 26.625,14.752 30.619,14.752C33.888,14.752 35.703,16.567 37.64,18.867L47.084,9.063C43.332,3.98 37.279,0.469 29.412,0.469C12.588,0.469 0,11.967 0,33.755C0,51.547 8.231,63.531 27.959,63.531C32.158,63.535 36.334,62.921 40.353,61.707L40.353,61.71C40.353,61.71 40.479,61.671 40.661,61.612C40.917,61.533 41.161,61.452 41.401,61.373C43.552,60.663 48.847,58.833 55.161,56.029C59.607,60.792 66.283,63.531 75.672,63.531C88.502,63.531 99.516,58.085 99.516,58.085L95.886,45.496C95.886,45.496 85.718,49.368 78.697,49.368ZM76.397,14.148C79.06,14.148 80.997,16.205 80.997,19.232C80.997,23.105 77.365,28.794 67.804,29.036C68.046,22.135 70.225,14.147 76.397,14.147L76.397,14.148Z" style="fill:#141215;fill-rule:nonzero;"/>
</svg>