<svg xmlns="http://www.w3.org/2000/svg" xml:space="preserve" fill-rule="evenodd" stroke-linejoin="round" stroke-miterlimit="2" clip-rule="evenodd" viewBox="0 0 1740 828"><path fill="none" d="M0 0h1740v828H0z"/><path d="m1189 660-5-7-98-140-8 35c-23 81-77 144-183 137-77-5-122-54-146-113l-8-23a898 898 0 0 1-342 255c-89 32-166 29-227 6C18 750-47 550 37 364A643 643 0 0 1 375 24c94-36 181-30 239 10 79 55 89 133 78 199-9 57-37 103-37 103l-95-57s17-28 23-65c5-29 3-64-32-89-33-23-83-18-137 2a531 531 0 0 0-276 282c-55 123-27 258 74 298 52 20 120 12 201-30 95-48 204-142 324-294l99 38s-4 60 16 110c9 21 22 42 50 44 42 2 61-26 70-58 22-74 4-170 4-170l100-41 136 195c54-104 157-160 157-160l72 18 94 138c54-105 155-156 155-156l50 98s-126 62-126 191v4l-101 26-4-6-129-188c-38 31-89 86-89 164l-102 30Z"/></svg>