<svg xmlns="http://www.w3.org/2000/svg" xml:space="preserve" fill-rule="evenodd" stroke-linejoin="round" stroke-miterlimit="2" clip-rule="evenodd" viewBox="0 0 2481 1181"><g transform="matrix(1 0 0 .79496 -5239 -4499)"><path fill="none" d="M5239 5659h2480v1485H5239z"/><clipPath id="a"><path d="M5239 5659h2480v1485H5239z"/></clipPath><g clip-path="url(#a)"><path d="M6037 6160s24-52 33-117c7-52 4-116-46-160-47-41-119-33-196 4-143 68-299 243-393 506-79 219-39 462 105 533 74 36 172 23 288-52 135-88 290-255 461-528l141 68s-6 108 23 196c12 39 32 76 72 79 60 5 86-46 99-104 31-132 6-303 6-303l142-74 195 349c77-186 223-286 223-286l102 31 135 249a642 642 0 0 1 221-281l71 177s-179 111-179 341v8l-145 47-6-11-183-337a415 415 0 0 0-128 293v1l-144 54-7-12-140-252-11 62c-34 145-110 258-262 246-109-9-173-96-207-202-5-13-8-27-12-41-182 253-348 394-487 457-128 57-238 52-325 10-219-107-311-466-192-799 114-320 308-528 481-610 135-65 260-54 342 19 112 98 127 238 112 355-9 65-28 122-41 155l-148-71Z"/></g></g></svg>