<svg xmlns="http://www.w3.org/2000/svg" xml:space="preserve" fill-rule="evenodd" stroke-linejoin="round" stroke-miterlimit="2" clip-rule="evenodd" viewBox="0 0 2481 1170"><g clip-path="url(#_clip1)" transform="matrix(1 0 0 .471429 -3605 0)"><path d="m5287 1983-8-25-139-420-11 103c-34 243-109 432-259 411-109-15-172-160-206-338l-11-68c-182 423-346 658-484 763-126 97-235 89-322 17-217-178-308-779-190-1336 113-534 305-881 477-1020 133-107 257-89 339 32 111 165 126 399 110 594-13 173-52 310-52 310l-134-170s24-86 32-194c7-87 4-195-46-268-46-69-117-55-193 7-142 114-297 406-391 845-77 367-38 774 105 891 73 61 170 38 285-87 134-146 287-426 458-882l139 113s-6 180 23 329c12 64 31 126 71 131 59 9 85-76 98-173 31-222 6-508 6-508l141-123 204 617 4-13c72-242 190-475 190-475l118 29 150 464c68-234 181-485 181-485l113 229s-75 167-135 348c-19 56-36 114-49 167-8 34-15 64-15 89v15l-140 86-1-4-8-23-172-533c-23 52-48 116-72 184a910 910 0 0 0-65 295l-141 76Z"/></g></svg>