<svg xmlns="http://www.w3.org/2000/svg" xml:space="preserve" fill-rule="evenodd" stroke-linejoin="round" stroke-miterlimit="2" clip-rule="evenodd" viewBox="0 0 973 462">
  <g transform="matrix(.441494 0 0 .358372 -7568 -567)">
    <path fill="none" d="M17143 1583h2202v1289h-2202z"/>
    <clipPath id="a">
      <path d="M17143 1583h2202v1289h-2202z"/>
    </clipPath>
    <g clip-path="url(#a)">
      <path d="m18614 2609-5-6-74-120-3 7a292 292 0 0 1-300 183c-101-16-159-88-192-175-142 182-272 286-383 335a340 340 0 0 1-292 8c-196-94-283-409-176-703 99-272 268-448 419-519 123-57 237-45 313 20 79 68 107 158 109 244 1 28-1 55-4 81-9 63-57 106-109 96-51-11-86-70-78-133l1-1c1-13 2-28 0-42-2-20-10-39-28-54-33-29-83-18-137 7-114 53-239 191-314 397-58 160-35 339 73 390 56 27 129 15 218-41 110-70 237-205 377-424l168 88s-6 55 4 113c6 34 17 76 55 82 33 6 87-6 108-57 11-29 8-65 4-97-8-68-29-125-29-125l160-120 159 256c71-137 180-211 180-211l122 37 93 168c12-21 25-40 39-57 81-103 182-153 182-153l71 216s-65 33-118 99c-28 37-54 84-54 146l-174 64-4-8-136-246c-36 43-73 106-73 190l-172 65Z"/>
    </g>
  </g>
</svg>