<svg xmlns="http://www.w3.org/2000/svg" xml:space="preserve" fill-rule="evenodd" stroke-linejoin="round" stroke-miterlimit="2" clip-rule="evenodd" viewBox="0 0 936 462">
  <g transform="matrix(.625933 0 0 .517513 -6969 -1617)">
    <path fill="none" d="M11133 3125h1495v892h-1495z"/>
    <clipPath id="a">
      <path d="M11133 3125h1495v892h-1495z"/>
    </clipPath>
    <g clip-path="url(#a)">
      <path d="m12139 3837-4-9-58-99c-24 85-76 149-171 142-69-6-111-55-135-118a761 761 0 0 1-275 238c-81 35-150 31-206 5-138-65-200-283-124-486 70-189 189-311 296-360 86-40 167-31 220 14 74 62 84 151 74 226l-4 22c-7 38-37 62-69 58l-6-1c-34-5-58-41-55-82l3-24c3-22 2-49-19-67-24-20-59-13-97 5a482 482 0 0 0-222 275c-41 110-24 235 52 270 39 19 91 10 153-29 78-48 167-141 267-293l118 55s-2 40 7 80c4 22 8 49 30 51 36 3 41-40 44-74 7-64-2-129-2-129l120-60 97 168c51-91 124-140 124-140l86 26 63 110c49-92 122-137 122-137l60 144s-95 56-95 172v2l-122 43-3-6-96-170c-26 29-51 73-51 131v2l-122 45Z"/>
    </g>
  </g>
</svg>